<svg id="Layer_1" data-name="Layer 1" xmlns="http://www.w3.org/2000/svg" xmlns:xlink="http://www.w3.org/1999/xlink" viewBox="0 0 498.84 426.57"><defs><style>.cls-1{fill:#bca0a4;}.cls-2{fill:#bd3f4b;}.cls-3{fill:url(#linear-gradient);}.cls-4{fill:url(#linear-gradient-2);}.cls-5{fill:#be1e2d;}.cls-6{fill:url(#linear-gradient-3);}.cls-7{fill:#bd4955;}.cls-10,.cls-11,.cls-12,.cls-14,.cls-15,.cls-8{fill:none;stroke-miterlimit:10;}.cls-8{stroke-width:8.1px;stroke:url(#linear-gradient-4);}.cls-9{fill:#bba5a9;}.cls-10{stroke-width:18.1px;stroke:url(#linear-gradient-5);}.cls-11{stroke-width:9.86px;stroke:url(#linear-gradient-6);}.cls-12{stroke:#9baaba;stroke-width:5.54px;}.cls-13{fill:#abb8bd;}.cls-14{stroke-width:7.22px;stroke:url(#linear-gradient-7);}.cls-15{stroke-width:6.59px;stroke:url(#linear-gradient-8);}</style><linearGradient id="linear-gradient" x1="220.01" y1="378.21" x2="354.98" y2="378.21" gradientUnits="userSpaceOnUse"><stop offset="0" stop-color="#5b6b72"/><stop offset="0.06" stop-color="#627278"/><stop offset="0.35" stop-color="#849097"/><stop offset="0.51" stop-color="#919ca2"/><stop offset="0.63" stop-color="#8b979d"/><stop offset="0.79" stop-color="#7b888f"/><stop offset="0.97" stop-color="#617077"/><stop offset="1" stop-color="#5b6b72"/></linearGradient><linearGradient id="linear-gradient-2" x1="213.82" y1="165.94" x2="213.82" y2="251.73" gradientUnits="userSpaceOnUse"><stop offset="0.06" stop-color="#abb8bd"/><stop offset="1" stop-color="#5b6b72"/></linearGradient><linearGradient id="linear-gradient-3" x1="259.25" y1="250.75" x2="307.51" y2="299.01" gradientUnits="userSpaceOnUse"><stop offset="0" stop-color="#d51f30"/><stop offset="1" stop-color="#992121"/></linearGradient><linearGradient id="linear-gradient-4" x1="397.66" y1="327.3" x2="480.3" y2="365.84" gradientUnits="userSpaceOnUse"><stop offset="0" stop-color="#bd4955"/><stop offset="0.45" stop-color="#00a551"/></linearGradient><linearGradient id="linear-gradient-5" x1="240.7" y1="86.93" x2="240.7" y2="392.47" gradientUnits="userSpaceOnUse"><stop offset="0" stop-color="#bbbdbf"/><stop offset="1" stop-color="#be1e2d"/></linearGradient><linearGradient id="linear-gradient-6" x1="376.35" y1="122.49" x2="477.82" y2="21.02" gradientUnits="userSpaceOnUse"><stop offset="0" stop-color="#bba5a9"/><stop offset="0.34" stop-color="#1b75bb"/></linearGradient><linearGradient id="linear-gradient-7" x1="10485.21" y1="207.71" x2="10559.48" y2="133.44" gradientTransform="translate(10574.86 544.62) rotate(180)" gradientUnits="userSpaceOnUse"><stop offset="0.03" stop-color="#bd3f4b"/><stop offset="0.43" stop-color="#f68e3d"/></linearGradient><linearGradient id="linear-gradient-8" x1="10675.21" y1="-619.65" x2="10737.16" y2="-578.85" gradientTransform="translate(727.19 10889.45) rotate(-90)" gradientUnits="userSpaceOnUse"><stop offset="0.04" stop-color="#bca0a4"/><stop offset="0.45" stop-color="#90278e"/></linearGradient></defs><title>ModuleIcon_FullApp2</title><path class="cls-1" d="M140.48,218.23c0.93-.54,2-0.81,3-1.27,3.41-1.55,7.85-1.69,14,3.94,4.31,4,11.54,9,7.28,17.05l6.4-5.44L177,227.1l5.84-10c-0.65.34-4.39,6.22-16-5.14-7.22-6.37-7.05-9.3-5.95-11.68,0.34-.74.67-1.84,1-2.45,0.57-1-2.92-3.34-2.92-3.34l-8.76,14.77-14.67,7.37,2.09,1.1S139.87,218.58,140.48,218.23Z" transform="translate(-49.24 -86.06)"/><path class="cls-2" d="M152.21,446.18c-1.41-4.49-2.38-9.57,6.16-15.48,4.67-3.23,11-9,17.7-3.25l4.23-3.4-11.89-10.59-9.16-8.11c0.18,0.69,5,5.49-8.29,14C141,426.55,138.63,423,136.54,421c-0.78-.74-3.78,2.05-3.78,2.05l11.47,11.25,5.39,16.1,1.49-1.75S152.42,446.83,152.21,446.18Z" transform="translate(-49.24 -86.06)"/><path class="cls-3" d="M220,374.45s60.56-21.59,107.7-6.09L355,382.1l-7.18,11.3s-61.51-13.1-120.53.26Z" transform="translate(-49.24 -86.06)"/><polygon class="cls-4" points="226.12 225.1 201.46 251.73 201.46 165.94 226.19 165.94 226.12 225.1"/><polygon class="cls-5" points="226.12 225.1 160.81 290.4 178.02 307.61 201.46 284.18 226.12 225.1"/><polygon class="cls-6" points="298.56 307.35 250.6 259.45 267.9 242.1 316.19 290.33 298.56 307.35"/><path class="cls-7" d="M460.09,396.69c-3.51,3.35-7.75,6.57-17.11,1.38-5.12-2.84-13.34-6.08-11.08-14.86l-5.08-2.35-4.35,15.81-3.32,11.14c0.55-.48,2.8-7.08,16.75,1.24,11.16,5.89,9,9.74,8.11,12.58-0.33,1.06,3.63,2.56,3.63,2.56l11-14.73,6.58-12.3-2.29-.58S460.6,396.21,460.09,396.69Z" transform="translate(-49.24 -86.06)"/><circle class="cls-8" cx="438.98" cy="346.57" r="41.53"/><path class="cls-9" d="M411.71,189.48c1.91,4.3,3.46,9.23-4.36,16.08-4.27,3.74-9.94,10.19-17.22,5.24l-3.82,3.86,13,9.17,10,7c-0.26-.66-5.55-4.89,6.64-14.89,9-8.26,11.85-5,14.15-3.27,0.86,0.65,3.53-2.47,3.53-2.47L422.88,195,413.81,185l-1.28,1.91S411.43,188.85,411.71,189.48Z" transform="translate(-49.24 -86.06)"/><circle class="cls-10" cx="240.7" cy="239.7" r="143.72"/><circle class="cls-11" cx="427.09" cy="71.75" r="66.82"/><circle class="cls-12" cx="240.7" cy="239.7" r="120.04"/><circle class="cls-13" cx="427.09" cy="72.86" r="43.78"/><circle class="cls-14" cx="52.52" cy="374.05" r="48.91"/><circle class="cls-13" cx="52.52" cy="373.24" r="31"/><circle class="cls-13" cx="438.98" cy="346.57" r="24.22"/><circle class="cls-15" cx="127.94" cy="183.27" r="33.79" transform="matrix(0.2, -0.98, 0.98, 0.2, -126.6, 185.57)"/><circle class="cls-13" cx="127.94" cy="183.27" r="17.08" transform="translate(-126.6 185.57) rotate(-78.37)"/></svg>